<!-- icon666.com - MILLIONS vector ICONS FREE --><svg viewBox="0 0 32 32" xmlns="http://www.w3.org/2000/svg"><g id="Layer_7" data-name="Layer 7"><path d="m16 17.54a5.89 5.89 0 1 0 -5.88-5.89 5.89 5.89 0 0 0 5.88 5.89zm0-9.77a3.88 3.88 0 1 1 -3.88 3.88 3.89 3.89 0 0 1 3.88-3.88z"></path><path d="m30 4.36-4.09-4.07a1 1 0 0 0 -.71-.29h-22.47a1 1 0 0 0 -1 1v30a1 1 0 0 0 1 1h26.54a1 1 0 0 0 1-1v-25.93a1 1 0 0 0 -.27-.71zm-1.73 25.64h-24.54v-28h21.06l3.48 3.48z"></path><path d="m17.5 19h-3a9 9 0 0 0 -9 9 1 1 0 0 0 1 1h19a1 1 0 0 0 1-1 9 9 0 0 0 -9-9zm-9.93 8a7 7 0 0 1 6.93-6h3a7 7 0 0 1 6.93 6z"></path></g></svg>